<svg xmlns="http://www.w3.org/2000/svg" version="1.1" xmlns:xlink="http://www.w3.org/1999/xlink" xmlns:svgjs="http://svgjs.dev/svgjs" width="128" height="128" viewBox="0 0 128 128"><g transform="matrix(0.8046875,0,0,0.8046875,12.00658306130255,2.917642944335938)"><svg viewBox="0 0 81 96" data-background-color="#f2eeeb" preserveAspectRatio="xMidYMid meet" height="151" width="128" xmlns="http://www.w3.org/2000/svg" xmlns:xlink="http://www.w3.org/1999/xlink"><g id="tight-bounds" transform="matrix(1,0,0,1,0.38802691295624925,0.25950000000000273)"><svg viewBox="0 0 80.22394617408752 95.481" height="95.481" width="80.22394617408752"><g><svg viewBox="0 0 80.22394617408752 95.481" height="95.481" width="80.22394617408752"><g><svg viewBox="0 0 80.22394617408752 95.481" height="95.481" width="80.22394617408752"><g id="textblocktransform"><svg viewBox="0 0 80.22394617408752 95.481" height="95.481" width="80.22394617408752" id="textblock"><g><svg viewBox="0 0 80.22394617408752 95.481" height="95.481" width="80.22394617408752"><g><svg viewBox="0 0 80.22394617408752 95.481" height="95.481" width="80.22394617408752"><g><svg xmlns="http://www.w3.org/2000/svg" xmlns:xlink="http://www.w3.org/1999/xlink" version="1.1" x="0" y="0" viewBox="4.170038684202967 0.207 41.66341805107275 49.586999999999996" enable-background="new 0 0 50 50" xml:space="preserve" height="95.481" width="80.22394617408752" class="icon-icon-0" data-fill-palette-color="accent" id="icon-0"><g fill="#d9d1cc" data-fill-palette-color="accent"><path fill="#d9d1cc" d="M20.834 25.431A221 221 0 0 1 25.008 22.609C27.009 21.279 29.072 19.91 31.1 18.406 31.172 17.519 31.373 13.584 29.477 13.201 29.477 13.201 25.487 16.047 21.89 18.561 21.89 18.561 22.469 23.187 20.834 25.431" data-fill-palette-color="accent"></path><path fill="#d9d1cc" d="M37.634 13.212L37.703 13.137C39.09 12.33 42.523 10.416 44.955 9.762 44.955 9.762 46.385 4.693 45.596 1.811L45.157 0.207S41.034 5.596 38.386 7.44C38.386 7.44 38.195 9.408 38.223 10.373 38.12 9.697 37.943 8.494 37.835 7.779 37.835 7.779 33.028 11.882 30.228 12.697 30.228 12.697 32.244 14.272 31.139 18.38 34.739 15.713 38.216 12.609 41.015 8.542 39.32 11.161 37.341 13.389 35.224 15.355 33.464 16.932 31.607 18.353 29.697 19.734L29.97 19.63 29.843 19.72 29.613 19.794A347 347 0 0 1 26.408 22.076C25.281 22.875 22.927 24.265 20.206 26.283 16.293 29.018 12.574 32.031 9.633 36.04 12.658 31.614 16.617 28.379 20.797 25.458 20.889 25.054 21.553 21.984 20.854 19.537 20.702 18.996 13.579 24.872 12.497 27.045 12.497 27.045 8.124 33.108 6.847 39.252 6.564 38.684 5.958 38.442 4.742 39.076 4.742 39.076 6.586 38.436 6.65 40.118 6.653 40.15 6.65 40.181 6.65 40.213 6.58 40.627 6.523 41.038 6.488 41.446L6.472 41.478C6.331 41.246 6.085 41.085 5.665 41.087 4.149 41.106 3.989 42.71 4.304 42.835 4.304 42.835 4.439 41.683 5.208 41.624 5.981 41.561 5.974 42.457 5.974 42.457L5.972 42.716A30 30 0 0 0 5 45.517C4.68 46.628 4.399 48.101 4.399 48.101L5.279 49.794C5.507 48.567 6.054 45.291 6.054 45.291 6.921 41.835 8.499 38.802 10.403 36.159 9.227 37.903 8.2 39.805 7.424 41.88 7.675 41.62 8.018 41.288 8.415 40.954 10.303 38.959 17.197 34.119 18.445 33.587 18.445 33.587 21.908 30.484 27.199 27.839 27.199 27.839 24.705 27.29 18.322 28.681 21.386 27.986 27.291 26.72 29.472 26.767 29.472 26.767 31.089 25.794 36.837 22.168 40.343 19.96 42.129 17.436 42.129 17.436S39.751 16.554 30.556 19.49C30.628 19.435 30.702 19.383 30.775 19.326 33.603 18.284 39.554 16.258 42.902 16.332 42.902 16.332 44.711 14.254 45.373 10.924 45.373 10.923 43.151 10.271 37.634 13.212M45.151 0.236L45.156 0.242C45.101 0.408 45.037 0.563 44.976 0.727 45.037 0.563 45.096 0.403 45.151 0.236M42.146 6.784A33 33 0 0 0 44.066 3.035C43.009 5.552 41.783 7.737 40.411 9.648A32 32 0 0 0 42.146 6.784" data-fill-palette-color="accent"></path></g></svg></g></svg></g></svg></g></svg></g></svg></g></svg></g><defs></defs></svg><rect width="80.22394617408752" height="95.481" fill="none" stroke="none" visibility="hidden"></rect></g></svg></g></svg>