<svg xmlns="http://www.w3.org/2000/svg" version="1.1" xmlns:xlink="http://www.w3.org/1999/xlink" xmlns:svgjs="http://svgjs.dev/svgjs" width="2000" height="373" viewBox="0 0 2000 373"><g transform="matrix(1,0,0,1,-1.2121212121212466,-1.9772051586335806)"><svg viewBox="0 0 396 74" data-background-color="#f2eeeb" preserveAspectRatio="xMidYMid meet" height="373" width="2000" xmlns="http://www.w3.org/2000/svg" xmlns:xlink="http://www.w3.org/1999/xlink"><g id="tight-bounds" transform="matrix(1,0,0,1,0.2400000000000091,0.39226054085492024)"><svg viewBox="0 0 395.52 73.21547891829017" height="73.21547891829017" width="395.52"><g><svg viewBox="0 0 395.52 73.21547891829017" height="73.21547891829017" width="395.52"><g><svg viewBox="0 0 395.52 73.21547891829017" height="73.21547891829017" width="395.52"><g id="textblocktransform"><svg viewBox="0 0 395.52 73.21547891829017" height="73.21547891829017" width="395.52" id="textblock"><g><svg viewBox="0 0 395.52 73.21547891829017" height="73.21547891829017" width="395.52"><g transform="matrix(1,0,0,1,0,0)"><svg width="395.52" viewBox="-3 -38.9 287.55333333333 54.05" height="73.21547891829017" data-palette-color="#595857"><path d="M5.85 9.55L5.85 9.55Q4.75 9.55 3.63 9.15 2.5 8.75 1.75 7.9 1 7.05 1 5.75L1 5.75Q1 5.55 1.03 5.3 1.05 5.05 1.1 4.85L1.1 4.85Q1.35 3.6 2.58 2.78 3.8 1.95 5.05 2L5.05 2Q5.5 1.25 6.4 1.25L6.4 1.25Q7.05 1.25 7.55 1.75L7.55 1.75Q7.75 1.8 7.98 1.83 8.2 1.85 8.45 1.85L8.45 1.85Q8.85 1.85 9.2 1.75 9.55 1.65 9.6 1.4L9.6 1.4Q9.75 0.9 9.95 1.35L9.95 1.35Q10.05 1.7 9.9 2.18 9.75 2.65 8.9 2.75L8.9 2.75Q8.5 2.75 8 2.5L8 2.5 8.05 2.6Q8.15 3 8.15 3.25L8.15 3.25Q8.15 3.55 8.1 3.85 8.05 4.15 8.05 4.4L8.05 4.4Q8.05 4.9 8.4 5.25L8.4 5.25Q8.75 5.6 9.15 5.5L9.15 5.5Q8.75 6.2 8 6.2L8 6.2Q7.4 6.2 6.88 5.73 6.35 5.25 6.3 4.5L6.3 4.5Q6.25 3.5 6.03 2.98 5.8 2.45 5.15 2.35L5.15 2.35 5.1 2.35Q4.15 2.3 3.2 3.13 2.25 3.95 2 5L2 5Q1.95 5.2 1.93 5.43 1.9 5.65 1.9 5.85L1.9 5.85Q1.9 7.25 3 8.05 4.1 8.85 5.5 8.85L5.5 8.85Q7.75 8.85 10.25 7.15 12.75 5.45 15.35 2.65 17.95-0.15 20.53-3.55 23.1-6.95 25.4-10.35L25.4-10.35 18.9-10.35Q14.95-10.35 13.1-8.7 11.25-7.05 11.25-5L11.25-5Q11.25-3.9 11.75-2.88 12.25-1.85 13.2-1.05L13.2-1.05 13.05-0.85Q12.3-1.1 11.58-1.85 10.85-2.6 10.4-3.6 9.95-4.6 9.95-5.5L9.95-5.5Q9.95-7.75 12.28-9.4 14.6-11.05 18.9-11.05L18.9-11.05 20.5-11.05Q19.85-11.25 19.23-11.73 18.6-12.2 18.6-12.85L18.6-12.85Q18.6-13.4 19-13.85 19.4-14.3 19.8-14.35L19.8-14.35 19.95-14.35Q20.15-14.35 20.15-14.25L20.15-14.25Q20.15-14.1 19.9-13.85L19.9-13.85Q19.75-13.7 19.75-13.45L19.75-13.45Q19.75-12.85 20.35-12.15 20.95-11.45 21.4-11.2L21.4-11.2Q21.8-11.15 21.9-11.05L21.9-11.05 25.9-11.05Q26.5-11.9 27.08-12.8 27.65-13.7 28.2-14.5L28.2-14.5Q29.3-16.15 30.8-18.05 32.3-19.95 34.1-21.88 35.9-23.8 37.8-25.35L37.8-25.35Q34.6-26.05 31.15-26.85 27.7-27.65 24.33-28.23 20.95-28.8 17.85-28.8L17.85-28.8Q15-28.8 12.53-28.15 10.05-27.5 8.15-25.85L8.15-25.85Q6.45-24.3 5.58-22.53 4.7-20.75 4.7-19.05L4.7-19.05Q4.7-16.7 6.4-15.05 8.1-13.4 11.5-13.6L11.5-13.6Q11.45-13.7 11.45-13.85 11.45-14 11.45-14.1L11.45-14.1Q11.45-15.35 12.45-16.1L12.45-16.1Q13.15-16.6 13.7-16.75 14.25-16.9 14.75-16.95L14.75-16.95Q15.3-17.05 15.93-17.5 16.55-17.95 16.55-18.6L16.55-18.6Q16.55-18.7 16.45-19L16.45-19Q16.55-19 16.78-18.95 17-18.9 17.2-18.5L17.2-18.5Q17.35-18.3 17.4-18 17.45-17.7 17.45-17.4L17.45-17.4Q17.45-16.35 16.88-15.13 16.3-13.9 15.6-13.25L15.6-13.25Q15.1-12.8 14.53-12.6 13.95-12.4 13.4-12.4L13.4-12.4Q12.4-12.4 11.95-12.9L11.95-12.9Q11.75-13.1 11.7-13.2L11.7-13.2Q9.1-13.05 7.2-13.78 5.3-14.5 4.1-15.75L4.1-15.75Q4.2-15.45 4.25-15.15 4.3-14.85 4.3-14.5L4.3-14.5Q4.3-14 4.15-13.45L4.15-13.45Q4.5-13.25 4.65-12.93 4.8-12.6 4.8-12.25L4.8-12.25Q4.8-11.7 4.58-11.18 4.35-10.65 4.05-10.3L4.05-10.3Q3.7-9.95 2.85-9.33 2-8.7 1.15-8.85L1.15-8.85Q1.3-9.05 1.75-9.6 2.2-10.15 2.2-11.1L2.2-11.1Q2.2-11.55 2.05-12.05L2.05-12.05Q1.85-12.9 2.5-13.3 3.15-13.7 3.7-13.6L3.7-13.6Q3.75-13.85 3.78-14.08 3.8-14.3 3.8-14.5L3.8-14.5Q3.8-15.4 3.4-16.45L3.4-16.45Q3.35-16.55 3.35-16.7L3.35-16.7Q2.15-18.5 2.15-20.75L2.15-20.75Q2.15-23 3.45-25.23 4.75-27.45 7.4-28.95L7.4-28.95Q9.2-30 11.3-30.43 13.4-30.85 15.7-30.85L15.7-30.85Q19.3-30.85 23.25-30.05 27.2-29.25 31.13-28.15 35.05-27.05 38.65-26.1L38.65-26.1Q40.65-27.7 42.4-28.3 44.15-28.9 45.5-28.9L45.5-28.9Q46.05-28.9 46.53-28.83 47-28.75 47.4-28.65L47.4-28.65Q48.5-28.35 49.1-27.68 49.7-27 49.7-26.3L49.7-26.3Q49.7-25.4 48.73-24.7 47.75-24 45.6-24L45.6-24Q44.7-24 43.55-24.15L43.55-24.15Q42.45-24.3 41.33-24.58 40.2-24.85 38.9-25.1L38.9-25.1Q37.35-23.8 35.6-21.48 33.85-19.15 32.08-16.4 30.3-13.65 28.7-11.05L28.7-11.05 32.45-11.05Q34.8-11.05 36.18-11.28 37.55-11.5 37.9-12.3L37.9-12.3 38.3-12.15Q37.9-11.2 36.6-10.8L36.6-10.8Q36.6-10.75 36.45-10.75L36.45-10.75Q35.6-10.55 34.8-10.08 34-9.6 33.45-9.05L33.45-9.05Q33.95-8.8 34.2-8.28 34.45-7.75 34.45-7.2L34.45-7.2Q34.45-6.8 34.3-6.4L34.3-6.4Q34.05-5.7 33.7-5.3 33.35-4.9 33-4.6L33-4.6Q32.75-4.35 32.52-3.9 32.3-3.45 32.3-3.05L32.3-3.05Q32.3-2.45 32.75-2.15L32.75-2.15Q32.6-2 32.4-2L32.4-2Q31.45-2 30.93-3.33 30.4-4.65 30.4-5.95L30.4-5.95Q30.4-7.5 31.3-8.4 32.2-9.3 33-9.2L33-9.2Q33.65-10 34.1-10.4L34.1-10.4Q33.3-10.35 32.4-10.35 31.5-10.35 30.5-10.35L30.5-10.35 28.25-10.35Q27.55-9.15 26.88-8.08 26.2-7 25.6-6.05L25.6-6.05Q21.05 1.15 16.13 5.35 11.2 9.55 5.85 9.55ZM45.35-24.7L45.35-24.7Q46.8-24.7 47.38-25.23 47.95-25.75 47.95-26.4L47.95-26.4Q47.95-27.4 47.03-27.78 46.1-28.15 45.2-28.15L45.2-28.15Q43.7-28.15 42.3-27.43 40.9-26.7 39.6-25.85L39.6-25.85Q40.3-25.7 41.48-25.4 42.65-25.1 43.9-24.85L43.9-24.85Q44.75-24.7 45.35-24.7ZM42.65 0.45L42.65 0.45Q41.35 0.45 40.2-0.18 39.05-0.8 38.5-2.2L38.5-2.2Q38.15-3.1 38.15-4.25L38.15-4.25Q38.15-5.65 38.7-7L38.7-7Q39.4-8.65 40.75-10.25 42.1-11.85 43.75-13.15 45.4-14.45 47.05-15.23 48.7-16 50-16L50-16Q51.1-16 51.75-15.4L51.75-15.4Q52.2-14.95 52.2-14.1L52.2-14.1Q52.2-13 51.37-11.58 50.55-10.15 49.05-9.1L49.05-9.1Q48.1-8.45 46.82-8.03 45.55-7.6 44.15-7.6L44.15-7.6Q43.7-7.6 43.22-7.65 42.75-7.7 42.3-7.8L42.3-7.8Q41.95-7.4 41.47-6.53 41-5.65 40.67-4.6 40.35-3.55 40.35-2.6L40.35-2.6Q40.4-1.3 41.07-0.78 41.75-0.25 42.7-0.25L42.7-0.25Q44.6-0.25 46.37-1.48 48.15-2.7 49.6-4.5 51.05-6.3 52.05-7.95L52.05-7.95Q52.2-8.15 52.3-8.18 52.4-8.2 52.45-8.2L52.45-8.2Q52.6-8.2 52.72-8.05 52.85-7.9 52.75-7.65L52.75-7.65Q52.1-6.6 51.07-5.15 50.05-3.7 48.67-2.38 47.3-1.05 45.6-0.2L45.6-0.2Q44.95 0.15 44.17 0.3 43.4 0.45 42.65 0.45ZM43.7-8.3L43.7-8.3Q46.05-8.3 47.97-9.53 49.9-10.75 50.75-12.5L50.75-12.5Q51-12.9 51.07-13.25 51.15-13.6 51.15-13.8L51.15-13.8Q51.15-14.65 50.2-14.65L50.2-14.65Q49.6-14.65 48.87-14.35 48.15-14.05 47.6-13.65L47.6-13.65Q46.65-12.95 45.62-11.93 44.6-10.9 43.8-9.93 43-8.95 42.6-8.4L42.6-8.4Q42.85-8.35 43.15-8.33 43.45-8.3 43.7-8.3ZM53.7 0.3L53.7 0.3Q52.3 0.3 51.55-0.78 50.8-1.85 50.8-3.55L50.8-3.55Q50.8-5.4 51.8-7.85L51.8-7.85Q52.35-9.2 53.45-10.63 54.55-12.05 56-13.28 57.45-14.5 59.12-15.28 60.8-16.05 62.55-16.05L62.55-16.05Q63.9-16.05 64.4-15.35 64.9-14.65 64.9-13.65L64.9-13.65Q64.9-12.7 64.6-11.7L64.6-11.7 67.4-15.95Q67.75-16.2 68.95-16.2L68.95-16.2Q69.85-16.2 70.67-16 71.5-15.8 71.15-15.4L71.15-15.4Q70.75-14.9 69.77-13.88 68.8-12.85 67.67-11.45 66.55-10.05 65.55-8.5L65.55-8.5Q65.05-7.65 64.07-6 63.1-4.35 62.55-2.85L62.55-2.85Q62.25-1.95 62.25-1.4L62.25-1.4Q62.25-0.35 63.15-0.35L63.15-0.35Q63.65-0.35 64.5-0.73 65.35-1.1 66.15-1.75L66.15-1.75Q67.75-3.05 68.95-4.88 70.15-6.7 71.1-8.1L71.1-8.1Q71.15-8.15 71.22-8.2 71.3-8.25 71.5-8.25L71.5-8.25Q71.7-8.25 71.8-8.08 71.9-7.9 71.7-7.65L71.7-7.65Q70.3-5.55 68.95-3.73 67.6-1.9 66.2-0.8 64.8 0.3 63.15 0.3L63.15 0.3Q61.85 0.3 61.07-0.48 60.3-1.25 60.3-2.6L60.3-2.6Q60.3-3.2 60.42-3.85 60.55-4.5 60.75-5.05L60.75-5.05Q59.95-4 58.77-2.75 57.6-1.5 56.3-0.6 55 0.3 53.7 0.3ZM54.15-0.65L54.15-0.65Q55.15-0.65 56.27-1.45 57.4-2.25 58.55-3.53 59.7-4.8 60.65-6.25L60.65-6.25Q61.45-7.45 62.22-8.8 63-10.15 63.52-11.45 64.05-12.75 64.05-13.8L64.05-13.8Q64.05-15.4 62.9-15.4L62.9-15.4Q62.1-15.4 61.05-14.7 60-14 58.92-12.9 57.85-11.8 56.92-10.53 56-9.25 55.45-8.05L55.45-8.05Q55.3-7.75 54.72-6.6 54.15-5.45 53.62-4.1 53.1-2.75 53.1-1.75L53.1-1.75Q53.1-0.65 54.15-0.65ZM72.84 0.35L72.84 0.35Q71.39 0.35 70.27-0.48 69.14-1.3 69.14-2.9L69.14-2.9Q69.14-3.75 69.24-4.42 69.34-5.1 69.72-5.88 70.09-6.65 70.87-7.85 71.64-9.05 72.99-10.9L72.99-10.9 76.64-16.05 73.94-16.05 74.34-16.8 77.19-16.8 81.19-22.55Q82.29-23.35 83.84-23.35L83.84-23.35Q84.59-23.35 85.34-23.1L85.34-23.1 80.59-16.85 84.14-16.85 83.74-16.1 80.04-16.1 75.89-10.3Q75.59-9.9 74.89-8.93 74.19-7.95 73.42-6.7 72.64-5.45 72.09-4.23 71.54-3 71.54-2L71.54-2Q71.54-0.35 73.14-0.35L73.14-0.35Q73.99-0.35 75.04-0.85L75.04-0.85Q77.34-1.85 78.97-3.73 80.59-5.6 82.09-7.95L82.09-7.95Q82.24-8.15 82.54-8.15L82.54-8.15Q82.69-8.15 82.79-8 82.89-7.85 82.79-7.65L82.79-7.65Q81.89-6.25 80.79-4.75 79.69-3.25 78.32-2 76.94-0.75 75.24-0.1L75.24-0.1Q74.14 0.35 72.84 0.35ZM89.64 0.5L89.64 0.5Q86.89 0.5 86.89-2.25L86.89-2.25Q86.89-3.25 87.67-4.65 88.44-6.05 89.54-7.53 90.64-9 91.64-10.2 92.64-11.4 93.14-11.95L93.14-11.95Q94.64-13.75 94.64-14.5L94.64-14.5Q94.64-15.05 93.99-15.05L93.99-15.05Q93.49-15.05 93.04-14.85L93.04-14.85Q91.19-14.2 89.29-12.45 87.39-10.7 85.67-8.43 83.94-6.15 82.59-3.9 81.24-1.65 80.44 0L80.44 0Q80.39 0.15 79.92 0.23 79.44 0.3 78.89 0.3L78.89 0.3Q78.39 0.3 78.02 0.23 77.64 0.15 77.64 0L77.64 0Q77.64 0 78.54-1.65 79.44-3.3 80.99-6.03 82.54-8.75 84.52-12.05 86.49-15.35 88.64-18.65L88.64-18.65Q90.39-21.35 92.24-24.05 94.09-26.75 96.32-29.13 98.54-31.5 101.39-33.1L101.39-33.1Q102.49-33.75 103.37-33.98 104.24-34.2 104.89-34.2L104.89-34.2Q105.54-34.2 106.04-34.05L106.04-34.05Q107.19-33.75 107.19-32.3L107.19-32.3Q107.19-31.2 106.59-29.68 105.99-28.15 105.04-26.68 104.09-25.2 103.09-24.05L103.09-24.05Q100.39-21.1 97.79-19.48 95.19-17.85 93.12-17.18 91.04-16.5 89.94-16.25L89.94-16.25Q89.54-15.7 88.79-14.58 88.04-13.45 87.14-12.15L87.14-12.15Q86.64-11.45 86.64-11.3L86.64-11.3Q86.64-11.25 86.84-11.38 87.04-11.5 87.29-11.75L87.29-11.75Q88.59-13.05 90.02-14.15 91.44-15.25 92.89-15.8L92.89-15.8Q93.94-16.2 94.99-16.2L94.99-16.2Q95.99-16.2 96.77-15.83 97.54-15.45 97.54-14.6L97.54-14.6Q97.54-13.85 96.79-12.8L96.79-12.8Q96.14-11.95 94.97-10.35 93.79-8.75 92.57-6.95 91.34-5.15 90.49-3.58 89.64-2 89.64-1.2L89.64-1.2Q89.64-0.45 90.34-0.45L90.34-0.45Q91.34-0.45 92.57-1.28 93.79-2.1 95.04-3.33 96.29-4.55 97.32-5.85 98.34-7.15 98.94-8.1L98.94-8.1Q99.14-8.2 99.29-8.2L99.29-8.2Q99.79-8.2 99.54-7.65L99.54-7.65Q98.04-5.3 96.29-3.45 94.54-1.6 92.82-0.55 91.09 0.5 89.64 0.5ZM90.59-17.2L90.59-17.2Q91.54-17.4 93.27-18.15 94.99-18.9 97.17-20.4 99.34-21.9 101.59-24.4L101.59-24.4Q102.49-25.4 103.67-26.9 104.84-28.4 105.44-29.65L105.44-29.65Q105.84-30.55 106.02-31.18 106.19-31.8 106.19-32.2L106.19-32.2Q106.19-33.1 105.39-33.1L105.39-33.1Q104.59-33.1 103.39-32.38 102.19-31.65 101.24-30.8L101.24-30.8Q99.69-29.4 97.99-27.38 96.29-25.35 94.77-23.25 93.24-21.15 92.12-19.5 90.99-17.85 90.59-17.2ZM102.29 0.45L102.29 0.45Q100.99 0.45 99.84-0.18 98.69-0.8 98.14-2.2L98.14-2.2Q97.79-3.1 97.79-4.25L97.79-4.25Q97.79-5.65 98.34-7L98.34-7Q99.04-8.65 100.39-10.25 101.74-11.85 103.39-13.15 105.04-14.45 106.69-15.23 108.34-16 109.64-16L109.64-16Q110.74-16 111.39-15.4L111.39-15.4Q111.84-14.95 111.84-14.1L111.84-14.1Q111.84-13 111.01-11.58 110.19-10.15 108.69-9.1L108.69-9.1Q107.74-8.45 106.46-8.03 105.19-7.6 103.79-7.6L103.79-7.6Q103.34-7.6 102.86-7.65 102.39-7.7 101.94-7.8L101.94-7.8Q101.59-7.4 101.11-6.53 100.64-5.65 100.31-4.6 99.99-3.55 99.99-2.6L99.99-2.6Q100.04-1.3 100.71-0.78 101.39-0.25 102.34-0.25L102.34-0.25Q104.24-0.25 106.01-1.48 107.79-2.7 109.24-4.5 110.69-6.3 111.69-7.95L111.69-7.95Q111.84-8.15 111.94-8.18 112.04-8.2 112.09-8.2L112.09-8.2Q112.24-8.2 112.36-8.05 112.49-7.9 112.39-7.65L112.39-7.65Q111.74-6.6 110.71-5.15 109.69-3.7 108.31-2.38 106.94-1.05 105.24-0.2L105.24-0.2Q104.59 0.15 103.81 0.3 103.04 0.45 102.29 0.45ZM103.34-8.3L103.34-8.3Q105.69-8.3 107.61-9.53 109.54-10.75 110.39-12.5L110.39-12.5Q110.64-12.9 110.71-13.25 110.79-13.6 110.79-13.8L110.79-13.8Q110.79-14.65 109.84-14.65L109.84-14.65Q109.24-14.65 108.51-14.35 107.79-14.05 107.24-13.65L107.24-13.65Q106.29-12.95 105.26-11.93 104.24-10.9 103.44-9.93 102.64-8.95 102.24-8.4L102.24-8.4Q102.49-8.35 102.79-8.33 103.09-8.3 103.34-8.3ZM116.34 0.5L116.34 0.5Q115.34 0.5 114.56-0.1 113.79-0.7 113.79-1.8L113.79-1.8Q113.79-3.05 114.46-4.5 115.14-5.95 115.94-7.13 116.74-8.3 116.99-8.65L116.99-8.65Q117.89-9.85 118.66-11.13 119.44-12.4 119.44-13.2L119.44-13.2Q119.44-13.95 118.79-14.15L118.79-14.15Q118.24-14.35 117.64-14.58 117.04-14.8 116.74-14.85L116.74-14.85Q116.59-14.6 116.04-13.68 115.49-12.75 114.76-11.58 114.04-10.4 113.39-9.3 112.74-8.2 112.39-7.65L112.39-7.65Q112.09-7.3 111.89-7.3L111.89-7.3Q111.69-7.3 111.61-7.5 111.54-7.7 111.69-7.95L111.69-7.95Q113.19-10.3 114.34-12.35 115.49-14.4 115.84-14.95L115.84-14.95Q115.34-15.3 115.04-16.15 114.74-17 114.74-17.9L114.74-17.9Q114.74-18.9 115.14-19.7 115.54-20.5 116.49-20.5L116.49-20.5Q117.14-20.5 117.39-19.88 117.64-19.25 117.64-18.45L117.64-18.45Q117.64-17.75 117.49-17.1 117.34-16.45 117.24-16.2L117.24-16.2 116.89-15.4Q117.49-15.35 118.69-15.2 119.89-15.05 121.19-14.85L121.19-14.85Q121.94-14.75 122.41-14.3 122.89-13.85 122.89-13.1L122.89-13.1Q122.89-12.35 122.39-11.3 121.89-10.25 120.69-8.9L120.69-8.9Q120.09-8.2 119.24-7.05 118.39-5.9 117.64-4.83 116.89-3.75 116.54-3.15L116.54-3.15Q115.89-2.1 115.89-1.25L115.89-1.25Q115.89-0.3 116.94-0.3L116.94-0.3Q118.09-0.3 119.39-1.18 120.69-2.05 121.94-3.35 123.19-4.65 124.16-5.93 125.14-7.2 125.59-7.95L125.59-7.95Q125.79-8.3 126.14-8.3L126.14-8.3Q126.39-8.3 126.39-8.05 126.39-7.8 126.29-7.65L126.29-7.65Q125.79-6.9 124.66-5.4 123.54-3.9 121.99-2.38 120.44-0.85 118.54 0L118.54 0Q117.94 0.25 117.34 0.38 116.74 0.5 116.34 0.5ZM141.58 11.15L141.58 11.15Q141.28 11.15 141.38 10.75L141.38 10.75Q141.43 10.35 140.73 10.15 140.03 9.95 139.63 10.05L139.63 10.05Q138.38 10.35 137.08 10.35L137.08 10.35Q134.58 10.35 132.73 9.03 130.88 7.7 130.88 5.2L130.88 5.2Q130.88 3.8 131.63 2L131.63 2Q132.73-0.55 135.08-2.65 137.43-4.75 140.03-6.5L140.03-6.5Q137.98-8.4 137.98-11.15L137.98-11.15Q137.98-13.4 139.51-15.73 141.03-18.05 144.23-19.75L144.23-19.75Q144.88-20.1 146.26-20.58 147.63-21.05 149.36-21.53 151.08-22 152.78-22.2L152.78-22.2Q152.58-22.7 152.41-23.25 152.23-23.8 152.18-24.45L152.18-24.45Q150.18-24.55 148.38-24.93 146.58-25.3 145.28-25.95L145.28-25.95Q145.08-26 144.88-26.03 144.68-26.05 144.43-26.05L144.43-26.05Q143.43-26.05 142.98-25.6L142.98-25.6Q143.58-25.3 143.58-24.5L143.58-24.5Q143.58-24.35 143.58-24.2 143.58-24.05 143.48-23.9L143.48-23.9Q143.28-23.4 143.06-23.18 142.83-22.95 142.58-22.7L142.58-22.7Q142.08-22.3 142.08-21.7L142.08-21.7Q142.08-21.4 142.38-21.15L142.38-21.15Q142.28-21.05 142.13-21.05L142.13-21.05Q141.48-21.05 141.16-21.9 140.83-22.75 140.83-23.55L140.83-23.55Q140.83-24.7 141.51-25.28 142.18-25.85 142.73-25.7L142.73-25.7Q143.18-26.3 143.93-26.4L143.93-26.4Q144.13-26.45 144.43-26.45L144.43-26.45Q142.58-27.65 141.78-28.95 140.98-30.25 140.98-31.4L140.98-31.4Q140.98-32.85 142.11-33.88 143.23-34.9 145.03-34.9L145.03-34.9Q146.48-34.9 147.93-34.2L147.93-34.2Q148.28-34.05 148.56-33.88 148.83-33.7 149.13-33.45L149.13-33.45Q149.58-33.4 150.38-33.65 151.18-33.9 151.08-34.4L151.08-34.4 151.08-34.5Q151.08-34.75 151.26-34.8 151.43-34.85 151.53-34.7L151.53-34.7Q151.83-34.4 151.83-33.95L151.83-33.95Q151.83-33.3 151.08-32.95L151.08-32.95Q150.78-32.85 150.48-32.85L150.48-32.85Q150.08-32.85 149.68-33L149.68-33Q150.38-32.3 150.88-31.3L150.88-31.3Q150.98-31.2 150.98-31.1L150.98-31.1Q151.43-31.05 151.81-30.55 152.18-30.05 152.18-29.3L152.18-29.3Q152.18-28.55 151.68-27.63 151.18-26.7 150.58-26.6L150.58-26.6Q150.08-26.55 150.08-26.75L150.08-26.75Q150.48-26.9 150.48-27.45L150.48-27.45Q150.48-27.95 150.23-28.3L150.23-28.3Q150.08-28.55 149.91-28.88 149.73-29.2 149.73-29.8L149.73-29.8Q149.73-30.25 149.98-30.65 150.23-31.05 150.68-31.1L150.68-31.1 150.63-31.2Q150.23-32.05 149.38-32.77 148.53-33.5 147.68-33.9L147.68-33.9Q146.63-34.35 145.68-34.35L145.68-34.35Q144.23-34.35 143.28-33.45 142.33-32.55 142.33-31.25L142.33-31.25Q142.33-30.25 143.01-29.13 143.68-28 145.18-27L145.18-27Q146.58-26.1 148.38-25.65 150.18-25.2 152.18-25.1L152.18-25.1Q152.18-25.5 152.26-25.93 152.33-26.35 152.43-26.8L152.43-26.8Q152.98-29 154.53-30.4 156.08-31.8 158.03-32.45 159.98-33.1 161.68-33.1L161.68-33.1Q163.93-33.1 164.96-32.27 165.98-31.45 165.98-30.35L165.98-30.35Q165.98-29.4 165.33-28.45 164.68-27.5 163.53-26.8L163.53-26.8Q161.63-25.7 159.08-25.13 156.53-24.55 153.93-24.45L153.93-24.45Q154.03-23.15 154.58-22.35L154.58-22.35Q155.78-22.35 156.71-22.1 157.63-21.85 158.08-21.2L158.08-21.2Q158.23-21 158.23-20.75L158.23-20.75Q158.23-20.4 157.81-20.13 157.38-19.85 156.58-19.85L156.58-19.85Q156.08-19.85 155.48-20L155.48-20Q154.28-20.3 153.48-21.2L153.48-21.2Q151.63-21.05 149.23-20.45 146.83-19.85 144.83-18.3L144.83-18.3Q142.73-16.65 141.73-14.68 140.73-12.7 140.73-10.8L140.73-10.8Q140.73-8.95 141.68-7.55L141.68-7.55Q145.33-9.75 149.26-11.6 153.18-13.45 156.23-15L156.23-15Q157.68-15.7 159.68-16.57 161.68-17.45 163.83-18.57 165.98-19.7 167.86-21.05 169.73-22.4 170.88-24.03 172.03-25.65 172.03-27.55L172.03-27.55Q172.03-29.15 171.13-30.38 170.23-31.6 168.38-31.65L168.38-31.65 168.88-32Q171.28-31.95 172.51-30.5 173.73-29.05 173.73-27.15L173.73-27.15Q173.73-25.35 172.66-23.83 171.58-22.3 169.83-21 168.08-19.7 166.01-18.65 163.93-17.6 161.93-16.7L161.93-16.7Q162.13-16.55 162.18-16.15L162.18-16.15Q162.33-15.35 162.33-14.55L162.33-14.55Q162.33-12 160.83-10.13 159.33-8.25 156.98-6.98 154.63-5.7 152.13-5.05L152.13-5.05Q149.23-4.3 146.83-4.3L146.83-4.3Q144.98-4.3 143.51-4.73 142.03-5.15 140.93-5.85L140.93-5.85Q138.58-4.15 136.68-2.1 134.78-0.05 133.78 2.3L133.78 2.3Q132.98 4.2 132.98 5.7L132.98 5.7Q132.98 7.4 133.96 8.43 134.93 9.45 136.43 9.7L136.43 9.7Q137.28 9.75 138.16 9.33 139.03 8.9 139.38 8.1L139.38 8.1Q138.83 8.05 138.48 7.55 138.13 7.05 138.13 6.5L138.13 6.5Q138.13 5.95 138.33 5.55 138.53 5.15 138.73 4.9L138.73 4.9Q138.83 4.7 138.88 4.48 138.93 4.25 138.93 4L138.93 4Q138.93 3.75 138.83 3.5 138.73 3.25 138.43 3.15L138.43 3.15Q138.63 2.95 138.93 2.95L138.93 2.95Q139.33 2.95 139.71 3.23 140.08 3.5 140.23 3.7L140.23 3.7Q140.63 4.2 140.81 4.88 140.98 5.55 140.98 6.1L140.98 6.1Q140.98 6.85 140.58 7.4 140.18 7.95 139.68 8.05L139.68 8.05Q139.48 8.8 138.78 9.35L138.78 9.35Q138.63 9.45 138.38 9.58 138.13 9.7 137.88 9.8L137.88 9.8Q139.73 9.7 141.73 8.68 143.73 7.65 145.43 5.75L145.43 5.75Q145.68 5.25 145.68 4.7L145.68 4.7Q145.68 4 145.33 3.1L145.33 3.1Q145.08 2.35 145.08 1.8L145.08 1.8Q145.08 0.95 145.48 0.25 145.88-0.45 146.43-0.95L146.43-0.95Q147.03-1.4 147.48-1.4L147.48-1.4Q148.13-1.4 148.13-1.05L148.13-1.05Q147.38-0.7 147.38 0.15L147.38 0.15Q147.38 0.6 147.68 1.15L147.68 1.15Q148.08 1.75 148.23 2.33 148.38 2.9 148.38 3.45L148.38 3.45Q148.38 4.25 148.06 4.93 147.73 5.6 147.18 6.05L147.18 6.05Q147.73 6.15 147.93 6.3L147.93 6.3Q148.38 6.6 148.38 7.3L148.38 7.3Q148.38 7.95 148.03 8.25L148.03 8.25Q147.93 8.35 147.83 8.35L147.83 8.35Q147.73 8.35 147.73 7.9L147.73 7.9Q147.73 7.55 147.26 7.33 146.78 7.1 146.23 6.95 145.68 6.8 145.33 6.8L145.33 6.8 145.28 6.8Q143.43 8.55 141.18 9.5L141.18 9.5Q141.23 9.5 141.26 9.53 141.28 9.55 141.33 9.55L141.33 9.55Q142.03 9.9 142.03 10.45L142.03 10.45Q142.03 10.8 141.78 11.05L141.78 11.05Q141.68 11.15 141.58 11.15ZM153.93-25.15L153.93-25.15Q156.68-25.25 159.23-26.1 161.78-26.95 163.43-28.35L163.43-28.35Q164.88-29.65 164.88-30.8L164.88-30.8Q164.88-31.5 164.23-31.95 163.58-32.4 162.13-32.4L162.13-32.4Q160.73-32.4 159.08-31.8 157.43-31.2 156.08-29.93 154.73-28.65 154.18-26.6L154.18-26.6Q153.93-25.75 153.93-25.15ZM147.23-5.1L147.23-5.1Q149.28-5.1 151.83-5.9L151.83-5.9Q154.18-6.7 156.26-8.13 158.33-9.55 159.58-11.58 160.83-13.6 160.68-16.15L160.68-16.15Q159.53-15.65 158.51-15.23 157.48-14.8 156.68-14.4L156.68-14.4Q153.58-12.85 149.71-11 145.83-9.15 142.28-6.8L142.28-6.8Q143.13-6 144.36-5.55 145.58-5.1 147.23-5.1ZM185.88 9.55L185.88 9.55Q184.78 9.55 183.65 9.15 182.53 8.75 181.78 7.9 181.03 7.05 181.03 5.75L181.03 5.75Q181.03 5.55 181.05 5.3 181.08 5.05 181.13 4.85L181.13 4.85Q181.38 3.6 182.6 2.78 183.83 1.95 185.08 2L185.08 2Q185.53 1.25 186.43 1.25L186.43 1.25Q187.08 1.25 187.58 1.75L187.58 1.75Q187.78 1.8 188 1.83 188.23 1.85 188.48 1.85L188.48 1.85Q188.88 1.85 189.23 1.75 189.58 1.65 189.63 1.4L189.63 1.4Q189.78 0.9 189.98 1.35L189.98 1.35Q190.08 1.7 189.93 2.18 189.78 2.65 188.93 2.75L188.93 2.75Q188.53 2.75 188.03 2.5L188.03 2.5 188.08 2.6Q188.18 3 188.18 3.25L188.18 3.25Q188.18 3.55 188.13 3.85 188.08 4.15 188.08 4.4L188.08 4.4Q188.08 4.9 188.43 5.25L188.43 5.25Q188.78 5.6 189.18 5.5L189.18 5.5Q188.78 6.2 188.03 6.2L188.03 6.2Q187.43 6.2 186.9 5.73 186.38 5.25 186.33 4.5L186.33 4.5Q186.28 3.5 186.05 2.98 185.83 2.45 185.18 2.35L185.18 2.35 185.13 2.35Q184.18 2.3 183.23 3.13 182.28 3.95 182.03 5L182.03 5Q181.98 5.2 181.95 5.43 181.93 5.65 181.93 5.85L181.93 5.85Q181.93 7.25 183.03 8.05 184.13 8.85 185.53 8.85L185.53 8.85Q187.78 8.85 190.28 7.15 192.78 5.45 195.38 2.65 197.98-0.15 200.55-3.55 203.13-6.95 205.43-10.35L205.43-10.35 198.93-10.35Q194.98-10.35 193.13-8.7 191.28-7.05 191.28-5L191.28-5Q191.28-3.9 191.78-2.88 192.28-1.85 193.23-1.05L193.23-1.05 193.08-0.85Q192.33-1.1 191.6-1.85 190.88-2.6 190.43-3.6 189.98-4.6 189.98-5.5L189.98-5.5Q189.98-7.75 192.3-9.4 194.63-11.05 198.93-11.05L198.93-11.05 200.53-11.05Q199.88-11.25 199.25-11.73 198.63-12.2 198.63-12.85L198.63-12.85Q198.63-13.4 199.03-13.85 199.43-14.3 199.83-14.35L199.83-14.35 199.98-14.35Q200.18-14.35 200.18-14.25L200.18-14.25Q200.18-14.1 199.93-13.85L199.93-13.85Q199.78-13.7 199.78-13.45L199.78-13.45Q199.78-12.85 200.38-12.15 200.98-11.45 201.43-11.2L201.43-11.2Q201.83-11.15 201.93-11.05L201.93-11.05 205.93-11.05Q206.53-11.9 207.1-12.8 207.68-13.7 208.23-14.5L208.23-14.5Q209.33-16.15 210.83-18.05 212.33-19.95 214.13-21.88 215.93-23.8 217.83-25.35L217.83-25.35Q214.63-26.05 211.18-26.85 207.73-27.65 204.35-28.23 200.98-28.8 197.88-28.8L197.88-28.8Q195.03-28.8 192.55-28.15 190.08-27.5 188.18-25.85L188.18-25.85Q186.48-24.3 185.6-22.53 184.73-20.75 184.73-19.05L184.73-19.05Q184.73-16.7 186.43-15.05 188.13-13.4 191.53-13.6L191.53-13.6Q191.48-13.7 191.48-13.85 191.48-14 191.48-14.1L191.48-14.1Q191.48-15.35 192.48-16.1L192.48-16.1Q193.18-16.6 193.73-16.75 194.28-16.9 194.78-16.95L194.78-16.95Q195.33-17.05 195.95-17.5 196.58-17.95 196.58-18.6L196.58-18.6Q196.58-18.7 196.48-19L196.48-19Q196.58-19 196.8-18.95 197.03-18.9 197.23-18.5L197.23-18.5Q197.38-18.3 197.43-18 197.48-17.7 197.48-17.4L197.48-17.4Q197.48-16.35 196.9-15.13 196.33-13.9 195.63-13.25L195.63-13.25Q195.13-12.8 194.55-12.6 193.98-12.4 193.43-12.4L193.43-12.4Q192.43-12.4 191.98-12.9L191.98-12.9Q191.78-13.1 191.73-13.2L191.73-13.2Q189.13-13.05 187.23-13.78 185.33-14.5 184.13-15.75L184.13-15.75Q184.23-15.45 184.28-15.15 184.33-14.85 184.33-14.5L184.33-14.5Q184.33-14 184.18-13.45L184.18-13.45Q184.53-13.25 184.68-12.93 184.83-12.6 184.83-12.25L184.83-12.25Q184.83-11.7 184.6-11.18 184.38-10.65 184.08-10.3L184.08-10.3Q183.73-9.95 182.88-9.33 182.03-8.7 181.18-8.85L181.18-8.85Q181.33-9.05 181.78-9.6 182.23-10.15 182.23-11.1L182.23-11.1Q182.23-11.55 182.08-12.05L182.08-12.05Q181.88-12.9 182.53-13.3 183.18-13.7 183.73-13.6L183.73-13.6Q183.78-13.85 183.8-14.08 183.83-14.3 183.83-14.5L183.83-14.5Q183.83-15.4 183.43-16.45L183.43-16.45Q183.38-16.55 183.38-16.7L183.38-16.7Q182.18-18.5 182.18-20.75L182.18-20.75Q182.18-23 183.48-25.23 184.78-27.45 187.43-28.95L187.43-28.95Q189.23-30 191.33-30.43 193.43-30.85 195.73-30.85L195.73-30.85Q199.33-30.85 203.28-30.05 207.23-29.25 211.15-28.15 215.08-27.05 218.68-26.1L218.68-26.1Q220.68-27.7 222.43-28.3 224.18-28.9 225.53-28.9L225.53-28.9Q226.08-28.9 226.55-28.83 227.03-28.75 227.43-28.65L227.43-28.65Q228.53-28.35 229.13-27.68 229.73-27 229.73-26.3L229.73-26.3Q229.73-25.4 228.75-24.7 227.78-24 225.63-24L225.63-24Q224.73-24 223.58-24.15L223.58-24.15Q222.48-24.3 221.35-24.58 220.23-24.85 218.93-25.1L218.93-25.1Q217.38-23.8 215.63-21.48 213.88-19.15 212.1-16.4 210.33-13.65 208.73-11.05L208.73-11.05 212.48-11.05Q214.83-11.05 216.2-11.28 217.58-11.5 217.93-12.3L217.93-12.3 218.33-12.15Q217.93-11.2 216.63-10.8L216.63-10.8Q216.63-10.75 216.48-10.75L216.48-10.75Q215.63-10.55 214.83-10.08 214.03-9.6 213.48-9.05L213.48-9.05Q213.98-8.8 214.23-8.28 214.48-7.75 214.48-7.2L214.48-7.2Q214.48-6.8 214.33-6.4L214.33-6.4Q214.08-5.7 213.73-5.3 213.38-4.9 213.03-4.6L213.03-4.6Q212.78-4.35 212.55-3.9 212.33-3.45 212.33-3.05L212.33-3.05Q212.33-2.45 212.78-2.15L212.78-2.15Q212.63-2 212.43-2L212.43-2Q211.48-2 210.95-3.33 210.43-4.65 210.43-5.95L210.43-5.95Q210.43-7.5 211.33-8.4 212.23-9.3 213.03-9.2L213.03-9.2Q213.68-10 214.13-10.4L214.13-10.4Q213.33-10.35 212.43-10.35 211.53-10.35 210.53-10.35L210.53-10.35 208.28-10.35Q207.58-9.15 206.9-8.08 206.23-7 205.63-6.05L205.63-6.05Q201.08 1.15 196.15 5.35 191.23 9.55 185.88 9.55ZM225.38-24.7L225.38-24.7Q226.83-24.7 227.4-25.23 227.98-25.75 227.98-26.4L227.98-26.4Q227.98-27.4 227.05-27.78 226.13-28.15 225.23-28.15L225.23-28.15Q223.73-28.15 222.33-27.43 220.93-26.7 219.63-25.85L219.63-25.85Q220.33-25.7 221.5-25.4 222.68-25.1 223.93-24.85L223.93-24.85Q224.78-24.7 225.38-24.7ZM221.92 0.45L221.92 0.45Q221.72 0.45 221.47 0.43 221.22 0.4 220.97 0.35L220.97 0.35Q219.52 0 218.9-0.98 218.27-1.95 218.27-3.35L218.27-3.35Q218.27-4.45 218.6-5.73 218.92-7 219.42-8.4L219.42-8.4Q220.27-10.6 221.55-13.28 222.82-15.95 224.45-18.78 226.07-21.6 227.9-24.25 229.72-26.9 231.67-29.05L231.67-29.05Q232.82-30.35 234-31.4 235.17-32.45 236.32-33.1L236.32-33.1Q238.27-34.3 239.92-34.3L239.92-34.3Q240.92-34.3 241.5-33.83 242.07-33.35 242.07-32.35L242.07-32.35Q242.07-31.7 241.8-30.88 241.52-30.05 240.87-29L240.87-29Q239.62-26.9 237.65-24.6 235.67-22.3 233.37-20.13 231.07-17.95 228.75-16.15 226.42-14.35 224.37-13.2L224.37-13.2Q223.37-11.4 222.47-9.38 221.57-7.35 221.02-5.53 220.47-3.7 220.47-2.4L220.47-2.4Q220.47-1.4 220.87-0.8 221.27-0.2 222.12-0.2L222.12-0.2Q223.22-0.2 224.67-1.2 226.12-2.2 227.7-3.93 229.27-5.65 230.67-7.95L230.67-7.95Q230.92-8.25 231.17-8.25L231.17-8.25Q231.32-8.25 231.4-8.05 231.47-7.85 231.37-7.65L231.37-7.65Q228.92-3.9 226.6-1.73 224.27 0.45 221.92 0.45ZM224.72-14.15L224.72-14.15Q226.32-15.05 228.45-16.9 230.57-18.75 232.77-21.03 234.97-23.3 236.85-25.55 238.72-27.8 239.77-29.5L239.77-29.5Q240.32-30.4 240.57-31.05 240.82-31.7 240.82-32.15L240.82-32.15Q240.82-33.05 240.02-33.05L240.02-33.05Q238.97-33.05 237.22-31.6L237.22-31.6Q235.97-30.55 234.87-29.28 233.77-28 233.32-27.4L233.32-27.4Q231.02-24.35 228.87-20.78 226.72-17.2 224.72-14.15ZM233.77 0.7L233.77 0.7Q232.62 0.7 231.65 0.15 230.67-0.4 230.17-1.65L230.17-1.65Q229.82-2.5 229.82-3.8L229.82-3.8Q229.82-5.45 230.42-7.15L230.42-7.15Q231.32-9.8 232.97-11.83 234.62-13.85 236.65-15.03 238.67-16.2 240.72-16.2L240.72-16.2Q242.57-16.2 243.42-15.2 244.27-14.2 244.27-12.65L244.27-12.65Q244.27-11.75 244.05-10.75 243.82-9.75 243.47-8.75L243.47-8.75Q242.97-7.35 242.17-6.2 241.37-5.05 240.82-4.4L240.82-4.4Q241.92-3.8 243.1-4.33 244.27-4.85 245.27-5.93 246.27-7 246.87-7.95L246.87-7.95Q246.97-8.15 247.15-8.2 247.32-8.25 247.37-8.25L247.37-8.25Q247.87-8.25 247.57-7.65L247.57-7.65Q245.92-4.95 243.92-3.88 241.92-2.8 240.37-3.75L240.37-3.75 240.27-3.6Q239.52-2.5 238.62-1.58 237.72-0.65 236.62-0.05L236.62-0.05Q235.97 0.3 235.22 0.5 234.47 0.7 233.77 0.7ZM234.22-0.15L234.22-0.15Q235.27-0.15 236.47-0.8L236.47-0.8Q237.52-1.4 238.4-2.3 239.27-3.2 239.82-4L239.82-4Q239.27-4.25 238.87-4.93 238.47-5.6 238.47-6.6L238.47-6.6Q238.47-7.65 238.9-8.88 239.32-10.1 240.1-10.95 240.87-11.8 241.82-11.8L241.82-11.8Q242.42-11.8 242.8-11.5 243.17-11.2 243.17-10.8L243.17-10.8Q243.27-11.05 243.35-11.55 243.42-12.05 243.42-12.65L243.42-12.65Q243.42-13.95 242.92-14.53 242.42-15.1 241.57-15.1L241.57-15.1Q241.22-15.1 240.85-15 240.47-14.9 240.07-14.75L240.07-14.75Q238.22-14 236.3-11.95 234.37-9.9 233.37-7.4L233.37-7.4Q232.97-6.4 232.62-5.05 232.27-3.7 232.27-2.55L232.27-2.55Q232.27-1.25 232.85-0.7 233.42-0.15 234.22-0.15ZM251.52 0.5L251.52 0.5Q250.52 0.5 249.74-0.1 248.97-0.7 248.97-1.8L248.97-1.8Q248.97-3.05 249.64-4.5 250.32-5.95 251.12-7.13 251.92-8.3 252.17-8.65L252.17-8.65Q253.07-9.85 253.84-11.13 254.62-12.4 254.62-13.2L254.62-13.2Q254.62-13.95 253.97-14.15L253.97-14.15Q253.42-14.35 252.82-14.58 252.22-14.8 251.92-14.85L251.92-14.85Q251.77-14.6 251.22-13.68 250.67-12.75 249.94-11.58 249.22-10.4 248.57-9.3 247.92-8.2 247.57-7.65L247.57-7.65Q247.27-7.3 247.07-7.3L247.07-7.3Q246.87-7.3 246.79-7.5 246.72-7.7 246.87-7.95L246.87-7.95Q248.37-10.3 249.52-12.35 250.67-14.4 251.02-14.95L251.02-14.95Q250.52-15.3 250.22-16.15 249.92-17 249.92-17.9L249.92-17.9Q249.92-18.9 250.32-19.7 250.72-20.5 251.67-20.5L251.67-20.5Q252.32-20.5 252.57-19.88 252.82-19.25 252.82-18.45L252.82-18.45Q252.82-17.75 252.67-17.1 252.52-16.45 252.42-16.2L252.42-16.2 252.07-15.4Q252.67-15.35 253.87-15.2 255.07-15.05 256.37-14.85L256.37-14.85Q257.12-14.75 257.59-14.3 258.07-13.85 258.07-13.1L258.07-13.1Q258.07-12.35 257.57-11.3 257.07-10.25 255.87-8.9L255.87-8.9Q255.27-8.2 254.42-7.05 253.57-5.9 252.82-4.83 252.07-3.75 251.72-3.15L251.72-3.15Q251.07-2.1 251.07-1.25L251.07-1.25Q251.07-0.3 252.12-0.3L252.12-0.3Q253.27-0.3 254.57-1.18 255.87-2.05 257.12-3.35 258.37-4.65 259.34-5.93 260.32-7.2 260.77-7.95L260.77-7.95Q260.97-8.3 261.32-8.3L261.32-8.3Q261.57-8.3 261.57-8.05 261.57-7.8 261.47-7.65L261.47-7.65Q260.97-6.9 259.84-5.4 258.72-3.9 257.17-2.38 255.62-0.85 253.72 0L253.72 0Q253.12 0.25 252.52 0.38 251.92 0.5 251.52 0.5ZM262.42 0.3L262.42 0.3Q261.02 0.3 260.27-0.78 259.52-1.85 259.52-3.55L259.52-3.55Q259.52-5.4 260.52-7.85L260.52-7.85Q261.06-9.2 262.17-10.63 263.27-12.05 264.72-13.28 266.17-14.5 267.84-15.28 269.52-16.05 271.27-16.05L271.27-16.05Q272.62-16.05 273.12-15.35 273.62-14.65 273.62-13.65L273.62-13.65Q273.62-12.7 273.31-11.7L273.31-11.7 276.12-15.95Q276.47-16.2 277.67-16.2L277.67-16.2Q278.56-16.2 279.39-16 280.22-15.8 279.87-15.4L279.87-15.4Q279.47-14.9 278.49-13.88 277.52-12.85 276.39-11.45 275.27-10.05 274.27-8.5L274.27-8.5Q273.77-7.65 272.79-6 271.81-4.35 271.27-2.85L271.27-2.85Q270.97-1.95 270.97-1.4L270.97-1.4Q270.97-0.35 271.87-0.35L271.87-0.35Q272.37-0.35 273.22-0.73 274.06-1.1 274.87-1.75L274.87-1.75Q276.47-3.05 277.67-4.88 278.87-6.7 279.81-8.1L279.81-8.1Q279.87-8.15 279.94-8.2 280.02-8.25 280.22-8.25L280.22-8.25Q280.42-8.25 280.52-8.08 280.62-7.9 280.42-7.65L280.42-7.65Q279.02-5.55 277.67-3.73 276.31-1.9 274.92-0.8 273.52 0.3 271.87 0.3L271.87 0.3Q270.56 0.3 269.79-0.48 269.02-1.25 269.02-2.6L269.02-2.6Q269.02-3.2 269.14-3.85 269.27-4.5 269.47-5.05L269.47-5.05Q268.67-4 267.49-2.75 266.31-1.5 265.02-0.6 263.72 0.3 262.42 0.3ZM262.87-0.65L262.87-0.65Q263.87-0.65 264.99-1.45 266.12-2.25 267.27-3.53 268.42-4.8 269.37-6.25L269.37-6.25Q270.17-7.45 270.94-8.8 271.72-10.15 272.24-11.45 272.77-12.75 272.77-13.8L272.77-13.8Q272.77-15.4 271.62-15.4L271.62-15.4Q270.81-15.4 269.77-14.7 268.72-14 267.64-12.9 266.56-11.8 265.64-10.53 264.72-9.25 264.17-8.05L264.17-8.05Q264.02-7.75 263.44-6.6 262.87-5.45 262.34-4.1 261.81-2.75 261.81-1.75L261.81-1.75Q261.81-0.65 262.87-0.65Z" opacity="1" transform="matrix(1,0,0,1,0,0)" fill="#595857" class="wordmark-text-0" data-fill-palette-color="primary" id="text-0"></path></svg></g></svg></g></svg></g></svg></g></svg></g><defs></defs></svg><rect width="395.52" height="73.21547891829017" fill="none" stroke="none" visibility="hidden"></rect></g></svg></g></svg>